<svg width="69" height="69" xmlns="http://www.w3.org/2000/svg" xmlns:xlink="http://www.w3.org/1999/xlink" xml:space="preserve" overflow="hidden"><g transform="translate(-422 -452)"><path d="M487.119 478.091 483.381 476.725 483.381 468.891 487.119 467.309 461.819 457.966 431.056 468.747C428.109 470.184 428.038 474.138 428.038 477.372 428.038 478.45 428.181 479.528 428.397 480.534 425.953 482.116 425.881 485.781 425.881 488.872 425.881 491.388 426.456 493.688 428.038 495.125 427.678 496.347 427.894 497.856 427.894 499.653 427.894 502.888 428.756 505.834 431.631 506.841L451.612 515.106 486.975 500.444 483.237 499.078 483.237 491.172 486.975 489.591 481.225 487.434 481.225 480.534 487.119 478.091ZM431.919 473.778 451.9 481.612 480.578 470.041 480.578 476.222 451.9 488.153 431.919 480.247 431.919 473.778ZM480.434 498.575 451.756 510.434 431.703 502.528 431.703 496.922 449.6 504.253 480.506 492.034 480.434 498.575ZM478.422 487.794 449.744 499.653 429.763 491.747 429.763 485.278 450.319 493.472 478.494 481.684 478.494 487.794Z" fill="#FFFFFF"/></g></svg>