<svg width="111" height="110" xmlns="http://www.w3.org/2000/svg" xmlns:xlink="http://www.w3.org/1999/xlink" xml:space="preserve" overflow="hidden"><defs><clipPath id="clip0"><path d="M401.452 229.619 458.672 177.005 511.286 234.225 454.066 286.839Z" fill-rule="evenodd" clip-rule="evenodd"/></clipPath><clipPath id="clip1"><path d="M401.452 229.619 458.672 177.005 511.286 234.225 454.066 286.839Z" fill-rule="evenodd" clip-rule="evenodd"/></clipPath><clipPath id="clip2"><path d="M401.452 229.619 458.672 177.005 511.286 234.225 454.066 286.839Z" fill-rule="evenodd" clip-rule="evenodd"/></clipPath></defs><g transform="translate(-401 -177)"><g clip-path="url(#clip0)"><g clip-path="url(#clip1)"><g clip-path="url(#clip2)"><path d="M429.397 239.673C428.568 244.395 428.331 248.683 428.431 251.782 428.525 254.995 430.991 257.677 434.24 258.1 437.319 258.458 441.612 258.581 446.387 258.151L429.397 239.673Z" fill="#FFFFFF"/><path d="M478.498 205.744C475.419 205.386 471.126 205.263 466.352 205.693L483.287 224.111C484.115 219.39 484.352 215.102 484.253 212.003 484.218 208.735 481.807 206.112 478.498 205.744Z" fill="#FFFFFF"/><path d="M441.023 215.233C435.778 220.056 432.561 227.084 430.726 233.941L452.265 257.366C459.251 256.111 466.524 253.494 471.77 248.671 477.015 243.848 480.232 236.82 482.067 229.963L460.528 206.538C453.542 207.792 446.269 210.41 441.023 215.233ZM469.838 225.037C470.441 225.693 470.398 226.723 469.742 227.325 469.087 227.928 468.057 227.885 467.454 227.229L465.81 225.441 463.426 227.634 465.07 229.422C465.673 230.077 465.63 231.107 464.974 231.71 464.318 232.313 463.289 232.27 462.686 231.614L461.042 229.826 458.657 232.018 460.302 233.806C460.904 234.462 460.861 235.492 460.206 236.094 459.55 236.697 458.52 236.654 457.917 235.998L456.273 234.21 453.889 236.403 455.533 238.191C456.136 238.846 456.093 239.876 455.437 240.479 454.782 241.082 453.752 241.039 453.149 240.383L451.505 238.595 449.121 240.787 450.765 242.575C451.368 243.231 451.325 244.26 450.669 244.863 450.013 245.466 448.984 245.423 448.381 244.767L442.9 238.807C442.297 238.151 442.34 237.122 442.996 236.519 443.652 235.916 444.681 235.959 445.284 236.615L446.928 238.403 449.313 236.211 447.668 234.422C447.066 233.767 447.109 232.737 447.764 232.134 448.42 231.531 449.45 231.575 450.053 232.23L451.697 234.018 454.081 231.826 452.437 230.038C451.834 229.382 451.877 228.353 452.533 227.75 453.188 227.147 454.218 227.19 454.821 227.846L456.465 229.634 458.849 227.442 457.205 225.653C456.602 224.998 456.645 223.968 457.301 223.365 457.957 222.762 458.986 222.806 459.589 223.461L461.234 225.249 463.618 223.057 461.974 221.269C461.371 220.613 461.414 219.584 462.069 218.981 462.725 218.378 463.755 218.421 464.358 219.077L469.838 225.037Z" fill="#FFFFFF"/></g></g></g></g></svg>