<svg width="69" height="69" xmlns="http://www.w3.org/2000/svg" xmlns:xlink="http://www.w3.org/1999/xlink" xml:space="preserve" overflow="hidden"><g transform="translate(-422 -328)"><path d="M454.782 376.976C454.782 378.778 453.321 380.239 451.519 380.239 449.717 380.239 448.256 378.778 448.256 376.976 448.256 375.173 449.717 373.712 451.519 373.712 453.321 373.712 454.782 375.173 454.782 376.976Z" fill="#FFFFFF"/><path d="M457.938 387.656 457.938 384.393C457.927 383.885 457.69 383.408 457.291 383.092 456.353 382.369 455.28 381.842 454.135 381.54 453.271 381.274 452.373 381.139 451.469 381.137 450.566 381.151 449.669 381.286 448.802 381.54 447.67 381.875 446.603 382.4 445.647 383.092 445.248 383.408 445.011 383.885 445 384.393L445 387.656Z" fill="#FFFFFF"/><path d="M469.057 376.976C469.057 378.778 467.596 380.239 465.793 380.239 463.991 380.239 462.53 378.778 462.53 376.976 462.53 375.173 463.991 373.712 465.793 373.712 467.596 373.712 469.057 375.173 469.057 376.976Z" fill="#FFFFFF"/><path d="M472.312 387.656 472.312 384.393C472.302 383.885 472.065 383.408 471.666 383.092 470.728 382.369 469.655 381.842 468.51 381.54 467.646 381.274 466.748 381.139 465.844 381.137 464.941 381.151 464.044 381.286 463.177 381.54 462.045 381.875 460.978 382.4 460.022 383.092 459.623 383.408 459.386 383.885 459.375 384.393L459.375 387.656Z" fill="#FFFFFF"/><path d="M483.432 376.976C483.432 378.778 481.971 380.239 480.168 380.239 478.366 380.239 476.905 378.778 476.905 376.976 476.905 375.173 478.366 373.712 480.168 373.712 481.971 373.712 483.432 375.173 483.432 376.976Z" fill="#FFFFFF"/><path d="M486.688 387.656 486.688 384.393C486.677 383.885 486.44 383.408 486.041 383.092 485.103 382.369 484.03 381.842 482.885 381.54 482.021 381.274 481.123 381.139 480.219 381.137 479.316 381.151 478.419 381.286 477.552 381.54 476.42 381.875 475.353 382.4 474.397 383.092 473.998 383.408 473.761 383.885 473.75 384.393L473.75 387.656Z" fill="#FFFFFF"/><path d="M441.708 346.802C441.708 349.16 439.797 351.072 437.439 351.072 435.081 351.072 433.169 349.16 433.169 346.802 433.169 344.445 435.081 342.533 437.439 342.533 439.797 342.533 441.708 344.445 441.708 346.802Z" fill="#FFFFFF"/><path d="M462.617 345.157C462.194 344.74 461.515 344.74 461.093 345.157L451.807 354.443C451.064 354.233 450.267 354.436 449.715 354.975 449.564 355.126 446.883 359.51 446.883 359.51L446.078 356.082C445.972 355.64 445.751 355.233 445.438 354.903 444.114 353.832 442.589 353.035 440.953 352.56 439.797 352.312 438.621 352.17 437.439 352.136 436.246 352.154 435.062 352.333 433.917 352.668 432.266 353.1 430.735 353.901 429.439 355.011 429.124 355.339 428.903 355.746 428.799 356.189 428.799 356.189 425.702 369.199 425.702 369.414 425.702 370.605 426.667 371.571 427.858 371.571 428.812 371.546 429.637 370.897 429.885 369.975L432.127 360.696 432.127 390.531 436.375 390.531 436.375 371.333 438.531 371.333 438.531 390.531 442.772 390.531 442.772 360.559 443.562 363.938C443.617 364.171 443.773 364.368 443.987 364.477 444.813 365.111 445.82 365.466 446.862 365.49 447.54 365.585 448.212 365.28 448.587 364.707L452.971 357.519C453.251 357.077 453.356 356.547 453.266 356.031L462.609 346.688C463.033 346.266 463.036 345.582 462.617 345.157Z" fill="#FFFFFF"/><path d="M477.344 335.188 442.125 335.188C440.537 335.188 439.25 336.475 439.25 338.062L439.25 340.65C440.349 340.949 441.344 341.546 442.125 342.375L442.125 338.062 477.344 338.062 477.344 361.781 452.813 361.781 451.059 364.656 477.344 364.656C478.932 364.656 480.219 363.369 480.219 361.781L480.219 338.062C480.219 336.475 478.932 335.188 477.344 335.188Z" fill="#FFFFFF"/></g></svg>