<svg width="69" height="69" xmlns="http://www.w3.org/2000/svg" xmlns:xlink="http://www.w3.org/1999/xlink" xml:space="preserve" overflow="hidden"><g transform="translate(-422 -579)"><path d="M438.531 589.062 474.469 589.062 474.469 637.938 438.531 637.938 438.531 589.062ZM434.219 642.25 478.781 642.25 478.781 584.75 434.219 584.75 434.219 642.25Z" fill="#FFFFFF"/><path d="M457.938 595.531 470.156 595.531 470.156 598.406 457.938 598.406Z" fill="#FFFFFF"/><path d="M457.938 607.031 470.156 607.031 470.156 609.906 457.938 609.906Z" fill="#FFFFFF"/><path d="M457.938 630.031 470.156 630.031 470.156 632.906 457.938 632.906Z" fill="#FFFFFF"/><path d="M457.938 618.531 470.156 618.531 470.156 621.406 457.938 621.406Z" fill="#FFFFFF"/><path d="M453.481 593.95 451.469 591.938 446.725 596.681 444.856 594.812 442.844 596.825 446.725 600.706Z" fill="#FFFFFF"/><path d="M453.481 605.45 451.469 603.438 446.725 608.181 444.856 606.312 442.844 608.325 446.725 612.206Z" fill="#FFFFFF"/><path d="M453.481 616.95 451.469 614.938 446.725 619.681 444.856 617.812 442.844 619.825 446.725 623.706Z" fill="#FFFFFF"/><path d="M453.481 628.306 451.469 626.294 446.725 631.037 444.856 629.169 442.844 631.181 446.725 635.062Z" fill="#FFFFFF"/></g></svg>